<svg xmlns="http://www.w3.org/2000/svg" width="1600" height="900" viewBox="0 0 1600 900" role="img" aria-labelledby="t d"><title id="t">Econia architecture</title><desc id="d">Layered architecture from document ingestion through analytics.</desc><defs><linearGradient id="h" x2="1"><stop stop-color="#082b50"/><stop offset="1" stop-color="#1268c4"/></linearGradient><filter id="s"><feDropShadow dx="0" dy="8" stdDeviation="12" flood-color="#0a3158" flood-opacity=".12"/></filter></defs><rect width="1600" height="900" fill="#f5f8fc"/><rect width="1600" height="132" fill="url(#h)"/><rect x="70" y="0" width="8" height="132" fill="#ed1c2e"/><text x="112" y="62" fill="#fff" font-family="Arial" font-size="42" font-weight="800">Econia architecture</text><text x="112" y="99" fill="#bed0e2" font-family="Arial" font-size="18">Hybrid deterministic + lightweight NLP · auditable by design</text>
<g font-family="Arial"><g filter="url(#s)" fill="#fff" stroke="#d7e3ef"><rect x="85" y="190" width="300" height="150" rx="20"/><rect x="455" y="190" width="300" height="150" rx="20"/><rect x="825" y="190" width="300" height="150" rx="20"/><rect x="1195" y="190" width="300" height="150" rx="20"/></g><g fill="#ed1c2e" font-size="14" font-weight="800" letter-spacing="2"><text x="115" y="226">01 · INPUT</text><text x="485" y="226">02 · STRUCTURE</text><text x="855" y="226">03 · SEMANTICS</text><text x="1225" y="226">04 · CONTROL</text></g><g fill="#082b50" font-size="25" font-weight="800"><text x="115" y="272">Ingestion</text><text x="485" y="272">Document model</text><text x="855" y="272">Atomic binding</text><text x="1225" y="272">Validation</text></g><g fill="#526d86" font-size="17"><text x="115" y="306">PDF · CSV · pasted text</text><text x="485" y="306">Pages · blocks · tables</text><text x="855" y="306">Indicator · value · period</text><text x="1225" y="306">Confidence · warnings</text></g><g fill="#1268c4"><path d="M400 265h38" stroke="#1268c4" stroke-width="4"/><path d="M430 255l12 10-12 10"/><path d="M770 265h38" stroke="#1268c4" stroke-width="4"/><path d="M800 255l12 10-12 10"/><path d="M1140 265h38" stroke="#1268c4" stroke-width="4"/><path d="M1170 255l12 10-12 10"/></g>
<rect x="85" y="405" width="1410" height="270" rx="24" fill="#082b50"/><text x="120" y="451" fill="#ff5a63" font-size="14" font-weight="800" letter-spacing="2">CORE ENGINE</text><g fill="#fff" font-size="19" font-weight="700"><text x="135" y="509">Content inventory</text><text x="135" y="558">Event segmentation</text><text x="135" y="607">Table reconstruction</text><text x="515" y="509">Indicator ontology</text><text x="515" y="558">Temporal resolver</text><text x="515" y="607">Geography registry</text><text x="895" y="509">Context resolver</text><text x="895" y="558">Fact-type classifier</text><text x="895" y="607">Numerical reconciliation</text><text x="1245" y="509">Deduplication</text><text x="1245" y="558">Conflict detection</text><text x="1245" y="607">Evidence validation</text></g><g fill="#2c83dc"><circle cx="117" cy="503" r="6"/><circle cx="117" cy="552" r="6"/><circle cx="117" cy="601" r="6"/><circle cx="497" cy="503" r="6"/><circle cx="497" cy="552" r="6"/><circle cx="497" cy="601" r="6"/><circle cx="877" cy="503" r="6"/><circle cx="877" cy="552" r="6"/><circle cx="877" cy="601" r="6"/><circle cx="1227" cy="503" r="6"/><circle cx="1227" cy="552" r="6"/><circle cx="1227" cy="601" r="6"/></g>
<g filter="url(#s)" fill="#fff" stroke="#d7e3ef"><rect x="85" y="735" width="430" height="105" rx="18"/><rect x="585" y="735" width="430" height="105" rx="18"/><rect x="1085" y="735" width="410" height="105" rx="18"/></g><g fill="#082b50" font-size="22" font-weight="800"><text x="118" y="781">SQLite evidence store</text><text x="618" y="781">Human validation</text><text x="1118" y="781">Analytics &amp; export</text></g><g fill="#61778d" font-size="16"><text x="118" y="813">Events · history · audit logs</text><text x="618" y="813">Review · correction · provenance</text><text x="1118" y="813">Series · comparisons · CSV</text></g></g></svg>
